<?xml version="1.0" encoding="UTF-8" standalone="no"?>
<svg
   version="1.0"
   width="203.2mm"
   height="270.93333mm"
   id="svg113"
   sodipodi:docname="Half_bridge_off.svg"
   inkscape:version="1.3.1 (9b9bdc1480, 2023-11-25, custom)"
   xmlns:inkscape="http://www.inkscape.org/namespaces/inkscape"
   xmlns:sodipodi="http://sodipodi.sourceforge.net/DTD/sodipodi-0.dtd"
   xmlns="http://www.w3.org/2000/svg"
   xmlns:svg="http://www.w3.org/2000/svg">
  <sodipodi:namedview
     id="namedview113"
     pagecolor="#ffffff"
     bordercolor="#eeeeee"
     borderopacity="1"
     inkscape:showpageshadow="0"
     inkscape:pageopacity="0"
     inkscape:pagecheckerboard="0"
     inkscape:deskcolor="#d1d1d1"
     inkscape:document-units="mm"
     inkscape:zoom="2.2097088"
     inkscape:cx="364.52767"
     inkscape:cy="330.81282"
     inkscape:window-width="1920"
     inkscape:window-height="1013"
     inkscape:window-x="0"
     inkscape:window-y="0"
     inkscape:window-maximized="1"
     inkscape:current-layer="svg113" />
  <defs
     id="defs1">
    <pattern
       id="WMFhbasepattern"
       patternUnits="userSpaceOnUse"
       width="6"
       height="6"
       x="0"
       y="0" />
  </defs>
  <path
     style="fill:#000000;fill-rule:nonzero;fill-opacity:1;stroke:none;"
     d="  M 417.6,383.76   L 417.52,385.04   L 417.12,386   L 416.56,386.88   L 415.68,387.52   L 414.72,387.92   L 413.6,388   L 410.48,388   L 410.48,379.76   L 413.2,379.76   L 414.24,379.76   L 415.84,380.32   L 416.48,380.8   L 416.96,381.36   L 417.52,382.88  z    M 416.48,383.76   L 416.4,383.04   L 416,381.92   L 415.6,381.44   L 415.2,381.04   L 413.92,380.64   L 413.2,380.64   L 411.6,380.64   L 411.6,387.12   L 413.44,387.12   L 414.32,387.04   L 415.04,386.72   L 415.68,386.24   L 416.08,385.52   L 416.4,384.8  z   "
     id="path1" />
  <path
     style="fill:#000000;fill-rule:nonzero;fill-opacity:1;stroke:none;"
     d="  M 418.56,390.4   L 418.56,389.92   L 418.8,389.52   L 419.04,389.12   L 419.28,388.8   L 419.6,388.48   L 419.92,388.24   L 420.24,388   L 420.56,387.76   L 420.8,387.52   L 421.04,387.28   L 421.2,387.04   L 421.28,386.8   L 421.36,386.48   L 421.28,386   L 421.04,385.76   L 420.8,385.52   L 420.32,385.52   L 419.92,385.52   L 419.6,385.76   L 419.36,386   L 419.28,386.4   L 418.56,386.32   L 418.72,385.76   L 419.12,385.36   L 419.68,385.04   L 420.32,384.96   L 421.12,385.04   L 421.6,385.36   L 421.92,385.76   L 422,386.4   L 422,386.72   L 421.92,387.04   L 421.68,387.36   L 421.44,387.68   L 421.12,388   L 420.4,388.64   L 420,388.96   L 419.68,389.28   L 419.44,389.52   L 419.28,389.84   L 422.08,389.84   L 422.08,390.4   L 418.56,390.4  z "
     id="path2" />
  <path
     style="fill:#000000;fill-rule:nonzero;fill-opacity:1;stroke:none;"
     d="  M 408,392   L 408,408   L 424,400   L 408,392  z "
     id="path3" />
  <path
     style="fill:#000000;fill-rule:nonzero;fill-opacity:1;stroke:none;"
     d="  M 401.04,403.04   L 401.04,397.04   L 407.04,400   L 401.04,403.04  z "
     id="path4" />
  <path
     style="fill:none;stroke:#000000;stroke-width:2px;stroke-linecap:butt;stroke-linejoin:miter;stroke-miterlimit:4;stroke-dasharray:none;stroke-opacity:1;"
     d="  M 423.04,392   L 423.04,408  "
     id="path5" />
  <path
     style="fill:none;stroke:#000000;stroke-width:1.04px;stroke-linecap:butt;stroke-linejoin:miter;stroke-miterlimit:4;stroke-dasharray:none;stroke-opacity:1;"
     d="  M 432,400   L 400,400  "
     id="path6" />
  <path
     style="fill:none;stroke:#000000;stroke-width:0.72000003px;stroke-linecap:butt;stroke-linejoin:miter;stroke-miterlimit:4;stroke-dasharray:none;stroke-opacity:1;"
     d="  M 403.04,391.04   L 403.04,385.04   M 400,388   L 406,388  "
     id="path7" />
  <path
     style="fill:none;stroke:#000000;stroke-width:0.72000003px;stroke-linecap:butt;stroke-linejoin:miter;stroke-miterlimit:4;stroke-dasharray:none;stroke-opacity:1;"
     d="  M 426,388   L 432,388  "
     id="path8" />
  <path
     style="fill:#000000;fill-rule:nonzero;fill-opacity:1;stroke:none;"
     d="  M 417.6,255.76   L 417.52,257.04   L 417.12,258   L 416.56,258.88   L 415.68,259.52   L 414.72,259.92   L 413.6,260   L 410.48,260   L 410.48,251.76   L 413.2,251.76   L 414.24,251.76   L 415.84,252.32   L 416.48,252.8   L 416.96,253.36   L 417.52,254.88  z    M 416.48,255.76   L 416.4,255.04   L 416,253.92   L 415.6,253.44   L 415.2,253.04   L 413.92,252.64   L 413.2,252.64   L 411.6,252.64   L 411.6,259.12   L 413.44,259.12   L 414.32,259.04   L 415.04,258.72   L 415.68,258.24   L 416.08,257.52   L 416.4,256.8  z   "
     id="path9" />
  <path
     style="fill:#000000;fill-rule:nonzero;fill-opacity:1;stroke:none;"
     d="  M 418.72,262.4   L 418.72,261.84   L 420.16,261.84   L 420.16,257.68   L 418.88,258.56   L 418.88,257.92   L 420.16,257.04   L 420.8,257.04   L 420.8,261.84   L 422.16,261.84   L 422.16,262.4   L 418.72,262.4  z "
     id="path10" />
  <path
     style="fill:#000000;fill-rule:nonzero;fill-opacity:1;stroke:none;"
     d="  M 408,264   L 408,280   L 424,272   L 408,264  z "
     id="path11" />
  <path
     style="fill:#000000;fill-rule:nonzero;fill-opacity:1;stroke:none;"
     d="  M 401.04,275.04   L 401.04,269.04   L 407.04,272   L 401.04,275.04  z "
     id="path12" />
  <path
     style="fill:none;stroke:#000000;stroke-width:2px;stroke-linecap:butt;stroke-linejoin:miter;stroke-miterlimit:4;stroke-dasharray:none;stroke-opacity:1;"
     d="  M 423.04,264   L 423.04,280  "
     id="path13" />
  <path
     style="fill:none;stroke:#000000;stroke-width:1.04px;stroke-linecap:butt;stroke-linejoin:miter;stroke-miterlimit:4;stroke-dasharray:none;stroke-opacity:1;"
     d="  M 432,272   L 400,272  "
     id="path14" />
  <path
     style="fill:none;stroke:#000000;stroke-width:0.72000003px;stroke-linecap:butt;stroke-linejoin:miter;stroke-miterlimit:4;stroke-dasharray:none;stroke-opacity:1;"
     d="  M 403.04,263.04   L 403.04,257.04   M 400,260   L 406,260  "
     id="path15" />
  <path
     style="fill:none;stroke:#000000;stroke-width:0.72000003px;stroke-linecap:butt;stroke-linejoin:miter;stroke-miterlimit:4;stroke-dasharray:none;stroke-opacity:1;"
     d="  M 426,260   L 432,260  "
     id="path16" />
  <path
     style="fill:#000000;fill-rule:nonzero;fill-opacity:1;stroke:none;"
     d="  M 228.8,220.8   L 228.08,220.88   L 227.04,221.28   L 226.64,221.68   L 226.32,222.16   L 225.92,223.36   L 225.84,224.16   L 225.92,224.88   L 226.32,226.08   L 226.64,226.56   L 227.12,226.96   L 228.16,227.44   L 228.8,227.52   L 229.68,227.44   L 230.96,226.56   L 231.44,225.76   L 232.32,226.24   L 231.76,227.2   L 230.88,227.84   L 229.92,228.32   L 228.8,228.4   L 227.6,228.32   L 226.64,227.92   L 225.76,227.28   L 225.2,226.4   L 224.8,225.36   L 224.72,224.16   L 224.8,223.2   L 225.28,221.6   L 225.84,221.04   L 226.4,220.56   L 227.84,220   L 228.72,219.92   L 230,220   L 230.96,220.4   L 231.76,221.04   L 232.24,222   L 231.2,222.32   L 230.88,221.68   L 230.24,221.2   L 229.6,220.88   L 228.8,220.8  z "
     id="path17" />
  <path
     style="fill:#000000;fill-rule:nonzero;fill-opacity:1;stroke:none;"
     d="  M 233.28,230.72   L 233.28,226.56   L 234,226.56   L 234,230.72  z    M 233.28,225.68   L 233.28,225.04   L 234,225.04   L 234,225.68  z   "
     id="path18" />
  <path
     style="fill:#000000;fill-rule:nonzero;fill-opacity:1;stroke:none;"
     d="  M 235.12,230.72   L 235.12,230.08   L 236.48,230.08   L 236.48,226   L 235.28,226.88   L 235.28,226.24   L 236.56,225.36   L 237.2,225.36   L 237.2,230.08   L 238.48,230.08   L 238.48,230.72   L 235.12,230.72  z "
     id="path19" />
  <path
     style="fill:none;stroke:#000000;stroke-width:2px;stroke-linecap:butt;stroke-linejoin:miter;stroke-miterlimit:4;stroke-dasharray:none;stroke-opacity:1;"
     d="  M 220,227.04   L 196,227.04   M 220,221.04   L 196,221.04  "
     id="path20" />
  <path
     style="fill:#000000;fill-rule:nonzero;fill-opacity:1;stroke:none;"
     d="  M 211.04,209.04   L 205.04,209.04   L 208,215.04   L 211.04,209.04  z "
     id="path21" />
  <path
     style="fill:none;stroke:#000000;stroke-width:1.04px;stroke-linecap:butt;stroke-linejoin:miter;stroke-miterlimit:4;stroke-dasharray:none;stroke-opacity:1;"
     d="  M 208,208   L 208,221.04   M 208,227.04   L 208,240  "
     id="path22" />
  <path
     style="fill:none;stroke:#000000;stroke-width:0.72000003px;stroke-linecap:butt;stroke-linejoin:miter;stroke-miterlimit:4;stroke-dasharray:none;stroke-opacity:1;"
     d="  M 220,215.04   L 220,209.04   M 217.04,212   L 223.04,212  "
     id="path23" />
  <path
     style="fill:none;stroke:#000000;stroke-width:0.72000003px;stroke-linecap:butt;stroke-linejoin:miter;stroke-miterlimit:4;stroke-dasharray:none;stroke-opacity:1;"
     d="  M 217.04,236   L 223.04,236  "
     id="path24" />
  <path
     style="fill:#000000;fill-rule:nonzero;fill-opacity:1;stroke:none;"
     d="  M 548.8,300.8   L 548.08,300.88   L 547.04,301.28   L 546.64,301.68   L 546.32,302.16   L 545.92,303.36   L 545.84,304.16   L 545.92,304.88   L 546.32,306.08   L 546.64,306.56   L 547.12,306.96   L 548.16,307.44   L 548.8,307.52   L 549.68,307.44   L 550.96,306.56   L 551.44,305.76   L 552.32,306.24   L 551.76,307.2   L 550.88,307.84   L 549.92,308.32   L 548.8,308.4   L 547.6,308.32   L 546.64,307.92   L 545.76,307.28   L 545.2,306.4   L 544.8,305.36   L 544.72,304.16   L 544.8,303.2   L 545.28,301.6   L 545.84,301.04   L 546.4,300.56   L 547.84,300   L 548.72,299.92   L 550,300   L 550.96,300.4   L 551.76,301.04   L 552.24,302   L 551.2,302.32   L 550.88,301.68   L 550.24,301.2   L 549.6,300.88   L 548.8,300.8  z "
     id="path25" />
  <path
     style="fill:#000000;fill-rule:nonzero;fill-opacity:1;stroke:none;"
     d="  M 556.8,308.64   L 556.72,309.6   L 556.32,310.24   L 555.76,310.72   L 554.96,310.8   L 554.08,310.64   L 553.6,310.24   L 553.2,309.6   L 553.12,308.64   L 553.2,307.68   L 554.16,306.56   L 554.96,306.48   L 555.84,306.56   L 556.4,307.04   L 556.72,307.6  z    M 556.08,308.64   L 556.08,307.84   L 555.84,307.36   L 555.52,307.04   L 554.96,307.04   L 554.4,307.04   L 554.08,307.44   L 553.92,307.84   L 553.84,308.64   L 553.92,309.36   L 554.08,309.84   L 554.4,310.16   L 554.96,310.24   L 555.52,310.16   L 555.84,309.84   L 556.08,309.36  z   "
     id="path26" />
  <path
     style="fill:none;stroke:#000000;stroke-width:2px;stroke-linecap:butt;stroke-linejoin:miter;stroke-miterlimit:4;stroke-dasharray:none;stroke-opacity:1;"
     d="  M 540,307.04   L 516,307.04   M 540,301.04   L 516,301.04  "
     id="path27" />
  <path
     style="fill:#000000;fill-rule:nonzero;fill-opacity:1;stroke:none;"
     d="  M 531.04,289.04   L 525.04,289.04   L 528,295.04   L 531.04,289.04  z "
     id="path28" />
  <path
     style="fill:none;stroke:#000000;stroke-width:1.04px;stroke-linecap:butt;stroke-linejoin:miter;stroke-miterlimit:4;stroke-dasharray:none;stroke-opacity:1;"
     d="  M 528,288   L 528,301.04   M 528,307.04   L 528,320  "
     id="path29" />
  <path
     style="fill:none;stroke:#000000;stroke-width:0.72000003px;stroke-linecap:butt;stroke-linejoin:miter;stroke-miterlimit:4;stroke-dasharray:none;stroke-opacity:1;"
     d="  M 540,295.04   L 540,289.04   M 537.04,292   L 543.04,292  "
     id="path30" />
  <path
     style="fill:none;stroke:#000000;stroke-width:0.72000003px;stroke-linecap:butt;stroke-linejoin:miter;stroke-miterlimit:4;stroke-dasharray:none;stroke-opacity:1;"
     d="  M 537.04,316   L 543.04,316  "
     id="path31" />
  <path
     style="fill:#000000;fill-rule:nonzero;fill-opacity:1;stroke:none;"
     d="  M 228.8,428.8   L 228.08,428.88   L 227.04,429.28   L 226.64,429.68   L 226.32,430.16   L 225.92,431.36   L 225.84,432.16   L 225.92,432.88   L 226.32,434.08   L 226.64,434.56   L 227.12,434.96   L 228.16,435.44   L 228.8,435.52   L 229.68,435.44   L 230.96,434.56   L 231.44,433.76   L 232.32,434.24   L 231.76,435.2   L 230.88,435.84   L 229.92,436.32   L 228.8,436.4   L 227.6,436.32   L 226.64,435.92   L 225.76,435.28   L 225.2,434.4   L 224.8,433.36   L 224.72,432.16   L 224.8,431.2   L 225.28,429.6   L 225.84,429.04   L 226.4,428.56   L 227.84,428   L 228.72,427.92   L 230,428   L 230.96,428.4   L 231.76,429.04   L 232.24,430   L 231.2,430.32   L 230.88,429.68   L 230.24,429.2   L 229.6,428.88   L 228.8,428.8  z "
     id="path32" />
  <path
     style="fill:#000000;fill-rule:nonzero;fill-opacity:1;stroke:none;"
     d="  M 233.28,438.72   L 233.28,434.56   L 234,434.56   L 234,438.72  z    M 233.28,433.68   L 233.28,433.04   L 234,433.04   L 234,433.68  z   "
     id="path33" />
  <path
     style="fill:#000000;fill-rule:nonzero;fill-opacity:1;stroke:none;"
     d="  M 234.96,438.72   L 234.96,438.24   L 235.12,437.76   L 235.36,437.44   L 235.68,437.12   L 236,436.8   L 236.32,436.56   L 236.56,436.32   L 236.88,436.08   L 237.12,435.84   L 237.36,435.6   L 237.52,435.36   L 237.68,435.04   L 237.68,434.72   L 237.68,434.32   L 237.44,434.08   L 237.12,433.84   L 236.72,433.84   L 236.32,433.84   L 236,434.08   L 235.76,434.32   L 235.68,434.72   L 234.96,434.64   L 235.12,434.08   L 235.52,433.6   L 236,433.28   L 236.72,433.28   L 237.44,433.28   L 237.92,433.6   L 238.32,434.08   L 238.4,434.72   L 238.4,435.04   L 238.24,435.36   L 238.08,435.68   L 237.84,435.92   L 237.44,436.32   L 236.72,436.88   L 236.32,437.28   L 236.08,437.52   L 235.84,437.84   L 235.68,438.08   L 238.48,438.08   L 238.48,438.72   L 234.96,438.72  z "
     id="path34" />
  <path
     style="fill:none;stroke:#000000;stroke-width:2px;stroke-linecap:butt;stroke-linejoin:miter;stroke-miterlimit:4;stroke-dasharray:none;stroke-opacity:1;"
     d="  M 220,435.04   L 196,435.04   M 220,429.04   L 196,429.04  "
     id="path35" />
  <path
     style="fill:#000000;fill-rule:nonzero;fill-opacity:1;stroke:none;"
     d="  M 211.04,417.04   L 205.04,417.04   L 208,423.04   L 211.04,417.04  z "
     id="path36" />
  <path
     style="fill:none;stroke:#000000;stroke-width:1.04px;stroke-linecap:butt;stroke-linejoin:miter;stroke-miterlimit:4;stroke-dasharray:none;stroke-opacity:1;"
     d="  M 208,416   L 208,429.04   M 208,435.04   L 208,448  "
     id="path37" />
  <path
     style="fill:none;stroke:#000000;stroke-width:0.72000003px;stroke-linecap:butt;stroke-linejoin:miter;stroke-miterlimit:4;stroke-dasharray:none;stroke-opacity:1;"
     d="  M 220,423.04   L 220,417.04   M 217.04,420   L 223.04,420  "
     id="path38" />
  <path
     style="fill:none;stroke:#000000;stroke-width:0.72000003px;stroke-linecap:butt;stroke-linejoin:miter;stroke-miterlimit:4;stroke-dasharray:none;stroke-opacity:1;"
     d="  M 217.04,444   L 223.04,444  "
     id="path39" />
  <path
     style="fill:none;stroke:#000000;stroke-width:0.47999999px;stroke-linecap:butt;stroke-linejoin:miter;stroke-miterlimit:4;stroke-dasharray:none;stroke-opacity:1;"
     d="  M 354,390   L 354,282   M 350,390   L 350,282  "
     id="path40" />
  <path
     style="fill:#000000;fill-rule:nonzero;fill-opacity:1;stroke:none;"
     d="  M 328,358   L 327.2,358.08   L 326.08,359.2   L 326,360   L 326.08,360.8   L 327.2,361.92   L 328,362   L 328.8,361.92   L 329.92,360.8   L 330,360   L 329.92,359.2   L 328.8,358.08   L 328,358  z "
     id="path41" />
  <path
     style="fill:#000000;fill-rule:nonzero;fill-opacity:1;stroke:none;"
     d="  M 378,344   L 377.92,344.8   L 376.8,345.92   L 376,346   L 375.2,345.92   L 374.08,344.8   L 374,344   L 374.08,343.2   L 375.2,342.08   L 376,342   L 376.8,342.08   L 377.92,343.2   L 378,344  z "
     id="path42" />
  <path
     style="fill:#000000;fill-rule:nonzero;fill-opacity:1;stroke:none;"
     d="  M 378,280   L 377.92,280.8   L 376.8,281.92   L 376,282   L 375.2,281.92   L 374.08,280.8   L 374,280   L 374.08,279.2   L 375.2,278.08   L 376,278   L 376.8,278.08   L 377.92,279.2   L 378,280  z "
     id="path43" />
  <path
     style="fill:#000000;fill-rule:nonzero;fill-opacity:1;stroke:none;"
     d="  M 326.16,404.96   L 326.16,412.32   L 325.04,412.32   L 325.04,404.96   L 322.24,404.96   L 322.24,404.08   L 329.04,404.08   L 329.04,404.96   L 326.16,404.96  z "
     id="path44" />
  <path
     style="fill:#000000;fill-rule:nonzero;fill-opacity:1;stroke:none;"
     d="  M 330.24,412.32   L 330.24,411.44   L 332.32,411.44   L 332.32,405.04   L 330.48,406.4   L 330.48,405.36   L 332.4,404.08   L 333.36,404.08   L 333.36,411.44   L 335.36,411.44   L 335.36,412.32   L 330.24,412.32  z "
     id="path45" />
  <path
     style="fill:#000000;fill-rule:nonzero;fill-opacity:1;stroke:none;"
     d="  M 347.36,267.52   L 348.96,267.68   L 348.96,268   L 344.72,268   L 344.72,267.68   L 346.32,267.52   L 346.32,261.12   L 344.72,261.68   L 344.72,261.36   L 347.04,260.08   L 347.36,260.08   L 347.36,267.52  z "
     id="path46" />
  <path
     style="fill:#000000;fill-rule:nonzero;fill-opacity:1;stroke:none;"
     d="  M 352,267.44   L 352,267.68   L 351.84,267.92   L 351.6,268.08   L 351.28,268.16   L 351.04,268.08   L 350.8,267.92   L 350.64,267.68   L 350.64,267.44   L 350.64,267.12   L 350.8,266.96   L 351.04,266.72   L 351.28,266.72   L 351.6,266.72   L 351.84,266.96   L 352,267.12  z    M 352,263.04   L 352,263.36   L 351.84,263.52   L 351.6,263.76   L 351.28,263.76   L 351.04,263.76   L 350.8,263.52   L 350.64,263.36   L 350.64,263.04   L 350.64,262.8   L 350.8,262.56   L 351.04,262.4   L 351.28,262.32   L 351.6,262.4   L 351.84,262.56   L 352,262.8  z   "
     id="path47" />
  <path
     style="fill:#000000;fill-rule:nonzero;fill-opacity:1;stroke:none;"
     d="  M 354.88,262.88   L 355.36,262.64   L 355.84,262.48   L 356.32,262.32   L 356.72,262.32   L 357.36,262.4   L 357.76,262.72   L 358.08,263.2   L 358.16,263.92   L 358.16,267.6   L 358.8,267.68   L 358.8,268   L 356.4,268   L 356.4,267.68   L 357.2,267.6   L 357.2,264.08   L 357.12,263.6   L 356.96,263.28   L 356.64,263.04   L 356.16,263.04   L 355.6,263.04   L 354.88,263.2   L 354.88,267.6   L 355.68,267.68   L 355.68,268   L 353.28,268   L 353.28,267.68   L 353.92,267.6   L 353.92,262.88   L 353.28,262.72   L 353.28,262.48   L 354.8,262.48   L 354.88,262.88  z "
     id="path48" />
  <path
     style="fill:#000000;fill-rule:nonzero;fill-opacity:1;stroke:none;"
     d="  M 366.08,411.44   L 366.08,411.68   L 365.84,411.92   L 365.68,412.08   L 365.36,412.16   L 365.12,412.08   L 364.88,411.92   L 364.72,411.68   L 364.64,411.44   L 364.72,411.12   L 364.88,410.96   L 365.12,410.72   L 365.36,410.72   L 365.68,410.72   L 365.84,410.96   L 366.08,411.12  z    M 366.08,407.04   L 366.08,407.36   L 365.84,407.52   L 365.68,407.76   L 365.36,407.76   L 365.12,407.76   L 364.88,407.52   L 364.72,407.36   L 364.64,407.04   L 364.72,406.8   L 364.88,406.56   L 365.12,406.4   L 365.36,406.32   L 365.68,406.4   L 365.84,406.56   L 366.08,406.8  z   "
     id="path49" />
  <path
     style="fill:#000000;fill-rule:nonzero;fill-opacity:1;stroke:none;"
     d="  M 368.96,406.88   L 369.44,406.64   L 369.92,406.48   L 370.4,406.32   L 370.8,406.32   L 371.44,406.4   L 371.84,406.72   L 372.16,407.2   L 372.24,407.92   L 372.24,411.6   L 372.88,411.68   L 372.88,412   L 370.48,412   L 370.48,411.68   L 371.2,411.6   L 371.2,408.08   L 371.2,407.6   L 370.96,407.28   L 370.72,407.04   L 370.24,407.04   L 369.68,407.04   L 368.96,407.2   L 368.96,411.6   L 369.68,411.68   L 369.68,412   L 367.36,412   L 367.36,411.68   L 368,411.6   L 368,406.88   L 367.36,406.72   L 367.36,406.48   L 368.88,406.48   L 368.96,406.88  z "
     id="path50" />
  <path
     style="fill:none;stroke:#000000;stroke-width:1.04px;stroke-linecap:butt;stroke-linejoin:miter;stroke-miterlimit:4;stroke-dasharray:1.03999996,1.03999996;stroke-opacity:1;stroke-dashoffset:0"
     d="  M 320,368   L 336,368   L 336,357.84   L 337.44,357.6   L 340,356.56   L 341.84,355.04   L 342.88,353.04   L 343.04,352   L 342.88,350.8   L 341.52,348.64   L 339.2,346.96   L 336,346.08   L 334.24,346   L 332.56,346.08   L 330.08,346.8   L 329.12,347.52   L 329.04,348   L 329.12,348.48   L 330.08,349.2   L 332.56,349.92   L 334.24,350   L 336,349.92   L 339.2,349.04   L 341.52,347.36   L 342.88,345.2   L 343.04,344   L 342.88,342.8   L 341.52,340.64   L 339.2,338.96   L 336,338.08   L 334.24,338   L 332.56,338.08   L 330.08,338.8   L 329.12,339.52   L 329.04,340   L 329.12,340.48   L 330.08,341.2   L 332.56,341.92   L 334.24,342   L 336,341.92   L 339.2,341.04   L 341.52,339.36   L 342.88,337.2   L 343.04,336   L 342.88,334.8   L 341.52,332.64   L 339.2,330.96   L 336,330.08   L 334.24,330   L 332.56,330.08   L 330.08,330.8   L 329.12,331.52   L 329.04,332   L 329.12,332.48   L 330.08,333.2   L 332.56,333.92   L 334.24,334   L 336,333.92   L 339.2,333.04   L 341.52,331.36   L 342.88,329.2   L 343.04,328   L 342.88,326.8   L 341.52,324.64   L 339.2,322.96   L 336,322.08   L 334.24,322   L 332.56,322.08   L 330.08,322.8   L 329.12,323.52   L 329.04,324   L 329.12,324.48   L 330.08,325.2   L 332.56,325.92   L 334.24,326   L 336,325.92   L 339.2,325.04   L 341.52,323.36   L 342.88,321.2   L 343.04,320   L 342.88,318.96   L 341.84,316.96   L 340,315.44   L 337.44,314.4   L 336,314.16   L 336,304   L 320,304  "
     id="path51" />
  <path
     style="fill:none;stroke:#000000;stroke-width:1.04px;stroke-linecap:butt;stroke-linejoin:miter;stroke-miterlimit:4;stroke-dasharray:none;stroke-opacity:1;"
     d="  M 384,400   L 368,400   L 368,389.84   L 366.56,389.6   L 364,388.56   L 362.16,387.04   L 361.12,385.04   L 361.04,384   L 361.12,382.8   L 362.48,380.64   L 364.8,378.96   L 368,378.08   L 369.76,378   L 371.44,378.08   L 373.92,378.8   L 374.88,379.52   L 375.04,380   L 374.88,380.48   L 373.92,381.2   L 371.44,381.92   L 369.76,382   L 368,381.92   L 364.8,381.04   L 362.48,379.36   L 361.12,377.2   L 361.04,376   L 361.12,374.8   L 362.48,372.64   L 364.8,370.96   L 368,370.08   L 369.76,370   L 371.44,370.08   L 373.92,370.8   L 374.88,371.52   L 375.04,372   L 374.88,372.48   L 373.92,373.2   L 371.44,373.92   L 369.76,374   L 368,373.92   L 364.8,373.04   L 362.48,371.36   L 361.12,369.2   L 361.04,368   L 361.12,366.8   L 362.48,364.64   L 364.8,362.96   L 368,362.08   L 369.76,362   L 371.44,362.08   L 373.92,362.8   L 374.88,363.52   L 375.04,364   L 374.88,364.48   L 373.92,365.2   L 371.44,365.92   L 369.76,366   L 368,365.92   L 364.8,365.04   L 362.48,363.36   L 361.12,361.2   L 361.04,360   L 361.12,358.8   L 362.48,356.64   L 364.8,354.96   L 368,354.08   L 369.76,354   L 371.44,354.08   L 373.92,354.8   L 374.88,355.52   L 375.04,356   L 374.88,356.48   L 373.92,357.2   L 371.44,357.92   L 369.76,358   L 368,357.92   L 364.8,357.04   L 362.48,355.36   L 361.12,353.2   L 361.04,352   L 361.12,350.96   L 362.16,348.96   L 364,347.44   L 366.56,346.4   L 368,346.16   L 368,336   L 384,336  "
     id="path52" />
  <path
     style="fill:none;stroke:#000000;stroke-width:1.04px;stroke-linecap:butt;stroke-linejoin:miter;stroke-miterlimit:4;stroke-dasharray:none;stroke-opacity:1;"
     d="  M 384,336   L 368,336   L 368,325.84   L 366.56,325.6   L 364,324.56   L 362.16,323.04   L 361.12,321.04   L 361.04,320   L 361.12,318.8   L 362.48,316.64   L 364.8,314.96   L 368,314.08   L 369.76,314   L 371.44,314.08   L 373.92,314.8   L 374.88,315.52   L 375.04,316   L 374.88,316.48   L 373.92,317.2   L 371.44,317.92   L 369.76,318   L 368,317.92   L 364.8,317.04   L 362.48,315.36   L 361.12,313.2   L 361.04,312   L 361.12,310.8   L 362.48,308.64   L 364.8,306.96   L 368,306.08   L 369.76,306   L 371.44,306.08   L 373.92,306.8   L 374.88,307.52   L 375.04,308   L 374.88,308.48   L 373.92,309.2   L 371.44,309.92   L 369.76,310   L 368,309.92   L 364.8,309.04   L 362.48,307.36   L 361.12,305.2   L 361.04,304   L 361.12,302.8   L 362.48,300.64   L 364.8,298.96   L 368,298.08   L 369.76,298   L 371.44,298.08   L 373.92,298.8   L 374.88,299.52   L 375.04,300   L 374.88,300.48   L 373.92,301.2   L 371.44,301.92   L 369.76,302   L 368,301.92   L 364.8,301.04   L 362.48,299.36   L 361.12,297.2   L 361.04,296   L 361.12,294.8   L 362.48,292.64   L 364.8,290.96   L 368,290.08   L 369.76,290   L 371.44,290.08   L 373.92,290.8   L 374.88,291.52   L 375.04,292   L 374.88,292.48   L 373.92,293.2   L 371.44,293.92   L 369.76,294   L 368,293.92   L 364.8,293.04   L 362.48,291.36   L 361.12,289.2   L 361.04,288   L 361.12,286.96   L 362.16,284.96   L 364,283.44   L 366.56,282.4   L 368,282.16   L 368,272   L 384,272  "
     id="path53" />
  <path
     style="fill:none;stroke:#000000;stroke-width:2px;stroke-linecap:square;stroke-linejoin:miter;stroke-miterlimit:4;stroke-dasharray:none;stroke-opacity:1;"
     d="  M 160,336   L 159.92,337.68   L 159.28,340.8   L 158.08,343.6   L 156.4,346.16   L 154.16,348.4   L 151.6,350.08   L 148.8,351.28   L 145.68,351.92   L 144,352   L 142.32,351.92   L 139.2,351.28   L 136.4,350.08   L 133.84,348.4   L 131.6,346.16   L 129.92,343.6   L 128.72,340.8   L 128.08,337.68   L 128,336   L 128.08,334.32   L 128.72,331.2   L 129.92,328.4   L 131.6,325.84   L 133.84,323.6   L 136.4,321.92   L 139.2,320.72   L 142.32,320.08   L 144,320   L 145.68,320.08   L 148.8,320.72   L 151.6,321.92   L 154.16,323.6   L 156.4,325.84   L 158.08,328.4   L 159.28,331.2   L 159.92,334.32   L 160,336  z "
     id="path54" />
  <path
     style="fill:none;stroke:#000000;stroke-width:0.72000003px;stroke-linecap:butt;stroke-linejoin:miter;stroke-miterlimit:4;stroke-dasharray:none;stroke-opacity:1;"
     d="  M 144,331.04   L 144,325.04   M 141.04,328   L 147.04,328  "
     id="path55" />
  <path
     style="fill:none;stroke:#000000;stroke-width:0.72000003px;stroke-linecap:butt;stroke-linejoin:miter;stroke-miterlimit:4;stroke-dasharray:none;stroke-opacity:1;"
     d="  M 141.04,344   L 147.04,344  "
     id="path56" />
  <path
     style="fill:#000000;fill-rule:nonzero;fill-opacity:1;stroke:none;"
     d="  M 173.6,339.04   L 172.48,339.04   L 169.12,330.8   L 170.24,330.8   L 172.56,336.56   L 173.04,338.08   L 173.52,336.56   L 175.84,330.8   L 176.96,330.8   L 173.6,339.04  z "
     id="path57" />
  <path
     style="fill:#000000;fill-rule:nonzero;fill-opacity:1;stroke:none;"
     d="  M 177.52,341.44   L 177.52,337.28   L 178.24,337.28   L 178.24,341.44  z    M 177.52,336.4   L 177.52,335.76   L 178.24,335.76   L 178.24,336.4  z   "
     id="path58" />
  <path
     style="fill:#000000;fill-rule:nonzero;fill-opacity:1;stroke:none;"
     d="  M 593.76,308.32   L 591.6,304.88   L 589.04,304.88   L 589.04,308.32   L 587.92,308.32   L 587.92,300.08   L 591.84,300.08   L 592.48,300.08   L 593.6,300.4   L 594,300.72   L 594.32,301.04   L 594.72,301.92   L 594.72,302.4   L 594.64,303.28   L 594.16,304   L 593.6,304.48   L 592.72,304.72   L 595.04,308.32  z    M 593.6,302.4   L 593.52,301.76   L 593.12,301.36   L 592.56,301.04   L 591.68,300.96   L 589.04,300.96   L 589.04,304   L 591.76,304   L 592.56,303.92   L 593.12,303.6   L 593.52,303.12  z   "
     id="path59" />
  <path
     style="fill:none;stroke:#000000;stroke-width:1.04px;stroke-linecap:butt;stroke-linejoin:round;stroke-miterlimit:4;stroke-dasharray:none;stroke-opacity:1;"
     d="  M 576,272   L 576,288   M 576,320   L 576,336  "
     id="path60" />
  <path
     style="fill:none;stroke:#000000;stroke-width:1.04px;stroke-linecap:butt;stroke-linejoin:round;stroke-miterlimit:4;stroke-dasharray:none;stroke-opacity:1;"
     d="  M 570,288   L 582,288   L 582,320   L 570,320   L 570,288  z "
     id="path61" />
  <path
     style="fill:#000000;fill-rule:nonzero;fill-opacity:1;stroke:none;"
     d="  M 579.04,281.04   L 573.04,281.04   L 576,287.04   L 579.04,281.04  z "
     id="path62" />
  <path
     style="fill:none;stroke:#000000;stroke-width:0.72000003px;stroke-linecap:butt;stroke-linejoin:miter;stroke-miterlimit:4;stroke-dasharray:none;stroke-opacity:1;"
     d="  M 588,287.04   L 588,281.04   M 585.04,284   L 591.04,284  "
     id="path63" />
  <path
     style="fill:none;stroke:#000000;stroke-width:0.72000003px;stroke-linecap:butt;stroke-linejoin:miter;stroke-miterlimit:4;stroke-dasharray:none;stroke-opacity:1;"
     d="  M 585.04,324   L 591.04,324  "
     id="path64" />
  <path
     style="fill:none;stroke:#000000;stroke-width:1.04px;stroke-linecap:butt;stroke-linejoin:miter;stroke-miterlimit:4;stroke-dasharray:none;stroke-opacity:1;"
     d="  M 528,272   L 513.84,272   L 513.52,270.56   L 512.48,268   L 510.96,266.16   L 509.04,265.12   L 507.92,265.04   L 506.72,265.12   L 504.56,266.48   L 502.96,268.8   L 502,272   L 501.92,273.76   L 502,275.44   L 502.72,277.92   L 503.44,278.88   L 503.92,279.04   L 504.4,278.88   L 505.2,277.92   L 505.84,275.44   L 505.92,273.76   L 505.84,272   L 504.96,268.8   L 503.28,266.48   L 501.2,265.12   L 499.92,265.04   L 498.72,265.12   L 496.56,266.48   L 494.96,268.8   L 494,272   L 493.92,273.76   L 494,275.44   L 494.72,277.92   L 495.44,278.88   L 495.92,279.04   L 496.4,278.88   L 497.2,277.92   L 497.84,275.44   L 497.92,273.76   L 497.84,272   L 496.96,268.8   L 495.28,266.48   L 493.2,265.12   L 491.92,265.04   L 490.72,265.12   L 488.56,266.48   L 486.96,268.8   L 486,272   L 485.92,273.76   L 486,275.44   L 486.72,277.92   L 487.44,278.88   L 487.92,279.04   L 488.4,278.88   L 489.2,277.92   L 489.84,275.44   L 489.92,273.76   L 489.84,272   L 488.96,268.8   L 487.28,266.48   L 485.2,265.12   L 483.92,265.04   L 482.88,265.12   L 480.96,266.16   L 479.36,268   L 478.32,270.56   L 478.08,272   L 464,272  "
     id="path65" />
  <path
     style="fill:#000000;fill-rule:nonzero;fill-opacity:1;stroke:none;"
     d="  M 494.32,260.32   L 494.32,252.08   L 495.44,252.08   L 495.44,259.36   L 499.6,259.36   L 499.6,260.32   L 494.32,260.32  z "
     id="path66" />
  <path
     style="fill:#000000;fill-rule:nonzero;fill-opacity:1;stroke:none;"
     d="  M 469.04,269.04   L 469.04,275.04   L 475.04,272   L 469.04,269.04  z "
     id="path67" />
  <path
     style="fill:none;stroke:#000000;stroke-width:0.72000003px;stroke-linecap:butt;stroke-linejoin:miter;stroke-miterlimit:4;stroke-dasharray:none;stroke-opacity:1;"
     d="  M 517.04,264   L 523.04,264  "
     id="path68" />
  <path
     style="fill:none;stroke:#000000;stroke-width:0.72000003px;stroke-linecap:butt;stroke-linejoin:miter;stroke-miterlimit:4;stroke-dasharray:none;stroke-opacity:1;"
     d="  M 472,267.04   L 472,261.04   M 469.04,264   L 475.04,264  "
     id="path69" />
  <path
     style="fill:#000000;fill-rule:nonzero;fill-opacity:1;stroke:none;"
     d="  M 296,229.04   L 296,219.04   L 304,224   L 296,229.04  z "
     id="path70" />
  <path
     style="fill:none;stroke:#000000;stroke-width:2px;stroke-linecap:round;stroke-linejoin:miter;stroke-miterlimit:4;stroke-dasharray:2,2;stroke-opacity:1;stroke-dashoffset:0"
     d="  M 310,204   L 310,244  "
     id="path71" />
  <path
     style="fill:none;stroke:#000000;stroke-width:1.04px;stroke-linecap:butt;stroke-linejoin:miter;stroke-miterlimit:4;stroke-dasharray:1.03999996,1.03999996;stroke-opacity:1;stroke-dashoffset:0"
     d="  M 304,208   L 288,208   L 288,192   M 310,224   L 320,224   M 304,219.04   L 304,229.04   M 304,203.04   L 304,213.04  "
     id="path72" />
  <path
     style="fill:none;stroke:#000000;stroke-width:1.04px;stroke-linecap:butt;stroke-linejoin:miter;stroke-miterlimit:4;stroke-dasharray:1.03999996,1.03999996;stroke-opacity:1;stroke-dashoffset:0"
     d="  M 304,224   L 288,224   L 288,256   M 304,235.04   L 304,245.04  "
     id="path73" />
  <path
     style="fill:none;stroke:#000000;stroke-width:1.04px;stroke-linecap:butt;stroke-linejoin:miter;stroke-miterlimit:4;stroke-dasharray:1.03999996,1.03999996;stroke-opacity:1;stroke-dashoffset:0"
     d="  M 288,240   L 304,240   L 304,240  "
     id="path74" />
  <path
     style="fill:#000000;fill-rule:nonzero;fill-opacity:1;stroke:none;"
     d="  M 271.92,223.84   L 271.92,224.72   L 271.44,226.16   L 271.04,226.72   L 270.56,227.28   L 269.36,227.92   L 268.64,228.08   L 268.88,228.72   L 269.2,229.12   L 269.68,229.44   L 270.24,229.44   L 270.56,229.44   L 270.88,229.36   L 270.88,230.16   L 270.32,230.32   L 269.84,230.32   L 269.04,230.24   L 268.4,229.84   L 267.84,229.2   L 267.44,228.16   L 266.32,228   L 265.44,227.52   L 264.72,226.96   L 264.16,226.08   L 263.84,225.04   L 263.76,223.84   L 263.76,222.88   L 264.32,221.36   L 264.8,220.8   L 265.36,220.24   L 266.88,219.68   L 267.84,219.68   L 269.04,219.76   L 270,220.16   L 270.88,220.72   L 271.44,221.6   L 271.84,222.64  z    M 270.8,223.84   L 270.72,223.12   L 270.4,221.92   L 270,221.44   L 269.6,221.04   L 268.48,220.64   L 267.84,220.56   L 267.12,220.64   L 266.08,221.04   L 265.68,221.44   L 265.28,221.92   L 264.88,223.12   L 264.88,223.84   L 264.88,224.64   L 265.28,225.84   L 265.68,226.32   L 266.08,226.72   L 267.12,227.2   L 267.84,227.28   L 268.48,227.2   L 269.6,226.8   L 270,226.4   L 270.4,225.92   L 270.72,224.64  z   "
     id="path75" />
  <path
     style="fill:#000000;fill-rule:nonzero;fill-opacity:1;stroke:none;"
     d="  M 273.12,230.4   L 273.12,229.84   L 274.48,229.84   L 274.48,225.76   L 273.28,226.56   L 273.28,225.92   L 274.48,225.04   L 275.12,225.04   L 275.12,229.84   L 276.48,229.84   L 276.48,230.4   L 273.12,230.4  z "
     id="path76" />
  <path
     style="fill:none;stroke:#000000;stroke-width:0.72000003px;stroke-linecap:butt;stroke-linejoin:miter;stroke-miterlimit:4;stroke-dasharray:none;stroke-opacity:1;"
     d="  M 280,203.04   L 280,197.04   M 283.04,200   L 277.04,200  "
     id="path77" />
  <path
     style="fill:none;stroke:#000000;stroke-width:0.72000003px;stroke-linecap:butt;stroke-linejoin:miter;stroke-miterlimit:4;stroke-dasharray:none;stroke-opacity:1;"
     d="  M 283.04,248   L 277.04,248  "
     id="path78" />
  <path
     style="fill:#000000;fill-rule:nonzero;fill-opacity:1;stroke:none;"
     d="  M 285.04,197.04   L 291.04,197.04   L 288,203.04   L 285.04,197.04  z "
     id="path79" />
  <path
     style="fill:#000000;fill-rule:nonzero;fill-opacity:1;stroke:none;"
     d="  M 296,437.04   L 296,427.04   L 304,432   L 296,437.04  z "
     id="path80" />
  <path
     style="fill:none;stroke:#000000;stroke-width:2px;stroke-linecap:round;stroke-linejoin:miter;stroke-miterlimit:4;stroke-dasharray:2,2;stroke-opacity:1;stroke-dashoffset:0"
     d="  M 310,412   L 310,452  "
     id="path81" />
  <path
     style="fill:none;stroke:#000000;stroke-width:1.04px;stroke-linecap:butt;stroke-linejoin:miter;stroke-miterlimit:4;stroke-dasharray:1.03999996,1.03999996;stroke-opacity:1;stroke-dashoffset:0"
     d="  M 304,416   L 288,416   L 288,400   M 310,432   L 320,432   M 304,427.04   L 304,437.04   M 304,411.04   L 304,421.04  "
     id="path82" />
  <path
     style="fill:none;stroke:#000000;stroke-width:1.04px;stroke-linecap:butt;stroke-linejoin:miter;stroke-miterlimit:4;stroke-dasharray:1.03999996,1.03999996;stroke-opacity:1;stroke-dashoffset:0"
     d="  M 304,432   L 288,432   L 288,464   M 304,443.04   L 304,453.04  "
     id="path83" />
  <path
     style="fill:none;stroke:#000000;stroke-width:1.04px;stroke-linecap:butt;stroke-linejoin:miter;stroke-miterlimit:4;stroke-dasharray:1.03999996,1.03999996;stroke-opacity:1;stroke-dashoffset:0"
     d="  M 288,448   L 304,448   L 304,448  "
     id="path84" />
  <path
     style="fill:#000000;fill-rule:nonzero;fill-opacity:1;stroke:none;"
     d="  M 271.92,431.84   L 271.92,432.72   L 271.44,434.16   L 271.04,434.72   L 270.56,435.28   L 269.36,435.92   L 268.64,436.08   L 268.88,436.72   L 269.2,437.12   L 269.68,437.44   L 270.24,437.44   L 270.56,437.44   L 270.88,437.36   L 270.88,438.16   L 270.32,438.32   L 269.84,438.32   L 269.04,438.24   L 268.4,437.84   L 267.84,437.2   L 267.44,436.16   L 266.32,436   L 265.44,435.52   L 264.72,434.96   L 264.16,434.08   L 263.84,433.04   L 263.76,431.84   L 263.76,430.88   L 264.32,429.36   L 264.8,428.8   L 265.36,428.24   L 266.88,427.68   L 267.84,427.68   L 269.04,427.76   L 270,428.16   L 270.88,428.72   L 271.44,429.6   L 271.84,430.64  z    M 270.8,431.84   L 270.72,431.12   L 270.4,429.92   L 270,429.44   L 269.6,429.04   L 268.48,428.64   L 267.84,428.56   L 267.12,428.64   L 266.08,429.04   L 265.68,429.44   L 265.28,429.92   L 264.88,431.12   L 264.88,431.84   L 264.88,432.64   L 265.28,433.84   L 265.68,434.32   L 266.08,434.72   L 267.12,435.2   L 267.84,435.28   L 268.48,435.2   L 269.6,434.8   L 270,434.4   L 270.4,433.92   L 270.72,432.64  z   "
     id="path85" />
  <path
     style="fill:#000000;fill-rule:nonzero;fill-opacity:1;stroke:none;"
     d="  M 272.88,438.4   L 272.88,437.92   L 273.12,437.52   L 273.36,437.2   L 273.68,436.8   L 273.92,436.56   L 274.24,436.32   L 274.56,436   L 274.88,435.84   L 275.12,435.6   L 275.36,435.36   L 275.52,435.04   L 275.6,434.8   L 275.68,434.48   L 275.6,434.08   L 275.36,433.76   L 275.12,433.6   L 274.64,433.52   L 274.24,433.6   L 273.92,433.76   L 273.68,434.08   L 273.6,434.48   L 272.96,434.4   L 273.04,433.76   L 273.44,433.36   L 274,433.04   L 274.64,432.96   L 275.44,433.04   L 275.92,433.36   L 276.32,433.84   L 276.4,434.48   L 276.32,434.8   L 276.24,435.12   L 276.08,435.36   L 275.76,435.68   L 275.44,436.08   L 274.72,436.64   L 274.32,437.04   L 274,437.28   L 273.76,437.6   L 273.68,437.84   L 276.48,437.84   L 276.48,438.4   L 272.88,438.4  z "
     id="path86" />
  <path
     style="fill:none;stroke:#000000;stroke-width:0.72000003px;stroke-linecap:butt;stroke-linejoin:miter;stroke-miterlimit:4;stroke-dasharray:none;stroke-opacity:1;"
     d="  M 280,411.04   L 280,405.04   M 283.04,408   L 277.04,408  "
     id="path87" />
  <path
     style="fill:none;stroke:#000000;stroke-width:0.72000003px;stroke-linecap:butt;stroke-linejoin:miter;stroke-miterlimit:4;stroke-dasharray:none;stroke-opacity:1;"
     d="  M 283.04,456   L 277.04,456  "
     id="path88" />
  <path
     style="fill:#000000;fill-rule:nonzero;fill-opacity:1;stroke:none;"
     d="  M 285.04,405.04   L 291.04,405.04   L 288,411.04   L 285.04,405.04  z "
     id="path89" />
  <path
     style="fill:none;stroke:#000000;stroke-width:1.04px;stroke-linecap:butt;stroke-linejoin:miter;stroke-miterlimit:4;stroke-dasharray:1.03999996,1.03999996;stroke-opacity:1;stroke-dashoffset:0"
     d="  M 280,304   L 284,304   L 284,304   L 284.08,303.2   L 284.64,301.76   L 285.76,300.64   L 287.2,300.08   L 288,300   L 288.8,300.08   L 290.24,300.64   L 291.36,301.76   L 291.92,303.2   L 292,304   L 296,304  "
     id="path90" />
  <path
     style="fill:none;stroke:#000000;stroke-width:1.04px;stroke-linecap:butt;stroke-linejoin:miter;stroke-miterlimit:4;stroke-dasharray:none;stroke-opacity:1;"
     d="  M 448,344   L 448,340   L 448,340   L 447.2,339.92   L 445.76,339.36   L 444.64,338.24   L 444.08,336.8   L 444,336   L 444.08,335.2   L 444.64,333.76   L 445.76,332.64   L 447.2,332.08   L 448,332   L 448,328  "
     id="path91" />
  <path
     style="fill:none;stroke:#000000;stroke-width:1.04px;stroke-linecap:butt;stroke-linejoin:miter;stroke-miterlimit:4;stroke-dasharray:none;stroke-opacity:1;"
     d="  M 144,320   L 144,176  "
     id="path92" />
  <path
     style="fill:none;stroke:#000000;stroke-width:1.04px;stroke-linecap:butt;stroke-linejoin:miter;stroke-miterlimit:4;stroke-dasharray:1.03999996,1.03999996;stroke-opacity:1;stroke-dashoffset:0"
     d="  M 287.52,176   L 288,192  "
     id="path93" />
  <path
     style="fill:none;stroke:#000000;stroke-width:0.777685px;stroke-linecap:butt;stroke-linejoin:miter;stroke-miterlimit:4;stroke-dasharray:0.777685, 0.777685;stroke-dashoffset:0;stroke-opacity:1"
     d="M 207.48,176 H 288"
     id="path94" />
  <path
     style="fill:none;stroke:#000000;stroke-width:1.04px;stroke-linecap:butt;stroke-linejoin:miter;stroke-miterlimit:4;stroke-dasharray:none;stroke-opacity:1;"
     d="  M 208,208   L 208,176  "
     id="path95" />
  <path
     style="fill:none;stroke:#000000;stroke-width:1.04px;stroke-linecap:butt;stroke-linejoin:miter;stroke-miterlimit:4;stroke-dasharray:none;stroke-opacity:1;"
     d="  M 208,240   L 208,416  "
     id="path96" />
  <path
     style="fill:none;stroke:#000000;stroke-width:1.04px;stroke-linecap:butt;stroke-linejoin:miter;stroke-miterlimit:4;stroke-dasharray:none;stroke-opacity:1;"
     d="  M 144,352   L 144,480.24  "
     id="path97" />
  <path
     style="fill:none;stroke:#000000;stroke-width:0.776415px;stroke-linecap:butt;stroke-linejoin:miter;stroke-miterlimit:4;stroke-dasharray:0.776415, 0.776415;stroke-dashoffset:0;stroke-opacity:1"
     d="m 288.18222,463.93209 v 16.12967 l -79.61193,0.24195"
     id="path98" />
  <path
     style="fill:none;stroke:#000000;stroke-width:1.04px;stroke-linecap:butt;stroke-linejoin:miter;stroke-miterlimit:4;stroke-dasharray:none;stroke-opacity:1;"
     d="  M 208,448   L 208,480  "
     id="path99" />
  <path
     style="fill:none;stroke:#000000;stroke-width:1.04px;stroke-linecap:butt;stroke-linejoin:miter;stroke-miterlimit:4;stroke-dasharray:1.03999996,1.03999996;stroke-opacity:1;stroke-dashoffset:0"
     d="  M 288,256   L 288,400  "
     id="path100" />
  <path
     style="fill:none;stroke:#000000;stroke-width:1.04px;stroke-linecap:butt;stroke-linejoin:miter;stroke-miterlimit:4;stroke-dasharray:1.03999996,1.03999996;stroke-opacity:1;stroke-dashoffset:0"
     d="  M 320,304   L 296,304  "
     id="path101" />
  <path
     style="fill:none;stroke:#000000;stroke-width:1.04px;stroke-linecap:butt;stroke-linejoin:miter;stroke-miterlimit:4;stroke-dasharray:1.03999996,1.03999996;stroke-opacity:1;stroke-dashoffset:0"
     d="  M 280,304   L 208,304  "
     id="path102" />
  <path
     style="fill:none;stroke:#000000;stroke-width:1.04px;stroke-linecap:butt;stroke-linejoin:miter;stroke-miterlimit:4;stroke-dasharray:1.03999996,1.03999996;stroke-opacity:1;stroke-dashoffset:0"
     d="  M 320,368   L 288,368  "
     id="path103" />
  <path
     style="fill:none;stroke:#000000;stroke-width:1.04px;stroke-linecap:butt;stroke-linejoin:miter;stroke-miterlimit:4;stroke-dasharray:none;stroke-opacity:1;"
     d="  M 384,272   L 400,272  "
     id="path104" />
  <path
     style="fill:none;stroke:#000000;stroke-width:1.04px;stroke-linecap:butt;stroke-linejoin:miter;stroke-miterlimit:4;stroke-dasharray:none;stroke-opacity:1;"
     d="  M 384,400   L 400,400  "
     id="path105" />
  <path
     style="fill:none;stroke:#000000;stroke-width:1.04px;stroke-linecap:butt;stroke-linejoin:miter;stroke-miterlimit:4;stroke-dasharray:none;stroke-opacity:1;"
     d="  M 528,272   L 576,272  "
     id="path106" />
  <path
     style="fill:none;stroke:#000000;stroke-width:1.04px;stroke-linecap:butt;stroke-linejoin:miter;stroke-miterlimit:4;stroke-dasharray:none;stroke-opacity:1;"
     d="  M 528,288   L 528,272  "
     id="path107" />
  <path
     style="fill:none;stroke:#000000;stroke-width:1.04px;stroke-linecap:butt;stroke-linejoin:miter;stroke-miterlimit:4;stroke-dasharray:none;stroke-opacity:1;"
     d="  M 576,336   L 384,336  "
     id="path108" />
  <path
     style="fill:none;stroke:#000000;stroke-width:1.04px;stroke-linecap:butt;stroke-linejoin:miter;stroke-miterlimit:4;stroke-dasharray:none;stroke-opacity:1;"
     d="  M 528,320   L 528,336  "
     id="path109" />
  <path
     style="fill:none;stroke:#000000;stroke-width:1.04px;stroke-linecap:butt;stroke-linejoin:miter;stroke-miterlimit:4;stroke-dasharray:none;stroke-opacity:1;"
     d="  M 432,400   L 448,400  "
     id="path110" />
  <path
     style="fill:none;stroke:#000000;stroke-width:1.04px;stroke-linecap:butt;stroke-linejoin:miter;stroke-miterlimit:4;stroke-dasharray:none;stroke-opacity:1;"
     d="  M 448,344   L 448,400  "
     id="path111" />
  <path
     style="fill:none;stroke:#000000;stroke-width:1.04px;stroke-linecap:butt;stroke-linejoin:miter;stroke-miterlimit:4;stroke-dasharray:none;stroke-opacity:1;"
     d="  M 448,328   L 448,272  "
     id="path112" />
  <path
     style="fill:none;stroke:#000000;stroke-width:1.04px;stroke-linecap:butt;stroke-linejoin:miter;stroke-miterlimit:4;stroke-dasharray:none;stroke-opacity:1;"
     d="  M 432,272   L 464,272  "
     id="path113" />
  <path
     style="fill:none;stroke:#000000;stroke-width:1px;stroke-linecap:butt;stroke-linejoin:miter;stroke-opacity:1"
     d="m 144,176 h 64"
     id="path114" />
  <path
     style="fill:none;stroke:#000000;stroke-width:1px;stroke-linecap:butt;stroke-linejoin:miter;stroke-opacity:1"
     d="m 144,480.24 64.57029,0.0637"
     id="path115" />
</svg>
